<svg class="thumb" width="1000" height="1000" viewBox="0,0,600,600" xmlns="http://www.w3.org/2000/svg" xmlns:inkscape="http://www.inkscape.org/namespaces/inkscape" xmlns:sodipodi="http://sodipodi.sourceforge.net/DTD/sodipodi-0.dtd" xmlns:xlink="http://www.w3.org/1999/xlink" xmlns:ns1="http://www.inkscape.org/namespaces/inkscape" xmlns:sketch="http://www.bohemiancoding.com/sketch/ns">
  <defs></defs>
  <g transform="matrix(1.0576,0,0,1.0576,-125.0282,14.3292)">
    <g transform="matrix(2.8884,0,0,2.8884,131.7599,0.3751)">
      <svg width="187.0337218024264" height="186.77" viewBox="-5.131860901213205,-5,187.0337218024264,186.77">
        <defs>
          <linearGradient x1="0" y1="0.5" x2="1" y2="0.5" id="linearGradientSjyt2t33t4">
            <stop offset="0%" stop-color="#ffce2e"></stop>
            <stop offset="100%" stop-color="#ffce2e"></stop>
          </linearGradient>
        </defs>
        <g></g>
        <g>
          <circle cx="88.385" cy="88.385" r="88.385" fill="url('#linearGradientSjyt2t33t4')" stroke="none" style=""></circle>
        </g>
      </svg>
    </g>
    <g transform="matrix(1.4165,0,0,1.4165,186.2597,137.8052)">
      <svg width="169.82421875" height="205" style="overflow: visible;">
        <defs>
          <linearGradient x1="0" y1="0.5" x2="1" y2="0.5" id="linearGradientSjyt2t33tv">
            <stop offset="0%" stop-color="#ffffff"></stop>
            <stop offset="100%" stop-color="#ffffff"></stop>
          </linearGradient>
        </defs>
        <g transform="matrix(1,0,0,1,0,108.75)">
          <path d="M 25.49-13.77L 25.49-13.77Q 26.95-14.65  27.78-16.16Q 28.61-17.68  29.59-19.04L 29.59-19.04Q 30.66-20.31  31.74-21.48Q 32.81-22.66  33.79-24.02L 33.79-24.02Q 33.89-24.61  33.94-24.71Q 33.98-24.8  34.03-24.85Q 34.08-24.9  34.13-25Q 34.18-25.1  34.38-25.59L 34.38-25.59Q 35.64-26.37  36.87-27.39Q 38.09-28.42  37.5-30.76L 37.5-30.76Q 38.18-32.13  38.77-33.06Q 39.36-33.98  39.99-34.81Q 40.63-35.64  41.26-36.57Q 41.89-37.5  42.68-38.77L 42.68-38.77Q 44.04-38.96  44.34-40.19Q 44.63-41.41  45.12-42.68L 45.12-42.68Q 45.61-43.75  46.19-44.73Q 46.78-45.7  47.27-46.58L 47.27-46.58Q 47.95-47.56  48.54-48.44Q 49.12-49.32  49.8-50L 49.8-50Q 50.1-51.07  50.88-52.34Q 51.66-53.61  52.78-54.59Q 53.91-55.57  55.32-55.91Q 56.74-56.25  58.3-55.57L 58.3-55.57Q 59.18-55.18  59.91-54Q 60.64-52.83  60.74-51.76L 60.74-51.76Q 60.74-50  59.57-48.34Q 58.4-46.68  57.91-45.51L 57.91-45.51Q 58.01-44.63  57.62-43.95Q 57.23-43.26  56.64-42.68Q 56.05-42.09  55.47-41.6Q 54.88-41.11  54.59-40.53L 54.59-40.53Q 53.42-39.55  52.78-38.92Q 52.15-38.28  50.78-37.3L 50.78-37.3Q 49.9-36.52  49.41-35.64Q 48.93-34.77  48.63-33.74Q 48.34-32.71  48.05-31.54Q 47.75-30.37  47.17-29.1L 47.17-29.1Q 46.29-27.15  44.82-25.63Q 43.36-24.12  42.29-22.27L 42.29-22.27Q 41.02-20.31  40.67-18.51Q 40.33-16.7  39.06-14.75L 39.06-14.75Q 38.67-14.06  38.09-13.43Q 37.5-12.79  37.01-12.11L 37.01-12.11Q 35.16-9.67  33.25-7.23Q 31.35-4.79  29.98-1.86L 29.98-1.86Q 29.39-1.76  28.96-1.17Q 28.52-0.59  28.03-0.1L 28.03-0.1Q 27.73 0.1  27.25 0.24Q 26.76 0.39  26.37 0.59L 26.37 0.59Q 25.78 1.07  25.29 1.56Q 24.8 2.05  23.73 2.44L 23.73 2.44Q 22.95 2.64  21.92 2.78Q 20.9 2.93  20.31 2.83L 20.31 2.83Q 18.75 2.54  17.48 0.83Q 16.21-0.88  15.72-2.54L 15.72-2.54Q 14.16-3.91  13.48-5.71Q 12.79-7.52  12.4-9.96L 12.4-9.96Q 12.3-10.45  12.35-10.84Q 12.4-11.23  12.4-11.72L 12.4-11.72Q 12.3-12.7  11.82-13.72Q 11.33-14.75  10.74-15.82Q 10.16-16.89  9.67-18.02Q 9.18-19.14  9.18-20.21L 9.18-20.21Q 9.18-21.19  9.28-22.17Q 9.38-23.14  9.18-24.22L 9.18-24.22Q 8.98-25.2  8.45-25.93Q 7.91-26.66  7.81-28.03L 7.81-28.03Q 7.71-28.81  7.57-30.13Q 7.42-31.45  7.28-32.86Q 7.13-34.28  7.03-35.6Q 6.93-36.91  6.84-37.6L 6.84-37.6Q 6.64-39.55  5.86-41.94Q 5.08-44.34  4.69-46L 4.69-46Q 4.49-46.97  4.49-48.54Q 4.49-50.1  4.59-50.39L 4.59-50.39Q 4.79-51.17  5.81-51.9Q 6.84-52.64  7.71-52.64L 7.71-52.64Q 8.59-52.64  9.18-52.05Q 9.77-51.46  10.74-51.17L 10.74-51.17Q 11.52-50.98  12.01-50.88Q 12.5-50.78  13.57-50.78L 13.57-50.78Q 14.55-50.88  15.58-50.59Q 16.6-50.29  17.38-50.1L 17.38-50.1Q 19.04-49.61  19.82-47.75Q 20.61-45.9  20.31-43.65L 20.31-43.65Q 20.12-42.77  20.12-41.7Q 20.12-40.63  19.82-39.75L 19.82-39.75Q 19.63-39.06  19.97-38.53Q 20.31-37.99  20.21-37.4L 20.21-37.4Q 20.21-36.82  20.41-35.6Q 20.61-34.38  20.9-32.96Q 21.19-31.54  21.48-30.27Q 21.78-29  21.97-28.42L 21.97-28.42Q 22.36-27.15  23.05-26.03Q 23.73-24.9  23.73-23.83L 23.73-23.83Q 23.73-23.24  23.54-22.71Q 23.34-22.17  23.34-21.68L 23.34-21.68Q 23.14-19.24  23.78-17.33Q 24.41-15.43  25.49-13.77ZM 104.69093749999999-45.61L 104.69093749999999-45.61Q 102.0509375-44.34  99.4109375-44.34Q 96.7809375-44.34  93.5509375-44.53L 93.5509375-44.53Q 92.67093750000001-44.53  91.6509375-44.43Q 90.6209375-44.34  89.75093749999999-44.24L 89.75093749999999-44.24Q 85.1609375-43.75  82.0309375-40.77Q 78.9109375-37.79  77.4409375-33.3L 77.4409375-33.3Q 76.9509375-31.64  76.6609375-30.27Q 76.3709375-28.91  77.9309375-28.71L 77.9309375-28.71Q 78.9109375-28.52  79.8809375-28.71Q 80.8609375-28.91  81.8809375-29.25Q 82.9109375-29.59  83.8909375-29.88Q 84.8609375-30.18  85.8409375-30.18L 85.8409375-30.18Q 86.23093750000001-30.18  86.5709375-29.98Q 86.9109375-29.79  87.3009375-29.79L 87.3009375-29.79Q 88.9609375-29.59  90.8209375-30.03Q 92.67093750000001-30.47  94.2409375-30.08L 94.2409375-30.08Q 94.5309375-29.98  94.7709375-29.74Q 95.0209375-29.49  95.5109375-29.3L 95.5109375-29.3Q 96.7809375-28.81  98.5309375-28.66Q 100.2909375-28.52  101.3709375-28.03L 101.3709375-28.03Q 101.8509375-27.83  102.3409375-27.29Q 102.8309375-26.76  102.8309375-26.56L 102.8309375-26.56Q 102.8309375-25.49  101.5609375-25.2Q 100.2909375-24.9  99.4109375-24.8L 99.4109375-24.8Q 98.6309375-24.71  97.8509375-24.8Q 97.0709375-24.9  96.2909375-24.71L 96.2909375-24.71Q 94.92093750000001-24.51  93.6509375-24.17Q 92.3809375-23.83  90.92093750000001-23.34L 90.92093750000001-23.34Q 89.2609375-22.75  87.7909375-21.92Q 86.3309375-21.09  84.5709375-20.9L 84.5709375-20.9Q 83.3009375-20.7  82.1309375-20.9Q 80.9609375-21.09  79.5909375-20.9L 79.5909375-20.9Q 79.1009375-20.8  78.6609375-20.61Q 78.2209375-20.41  77.7309375-20.31L 77.7309375-20.31Q 76.8509375-20.12  76.42093750000001-20.07Q 75.9809375-20.02  75.7309375-19.82Q 75.4909375-19.63  75.2409375-19.24Q 75.00093749999999-18.85  74.5109375-18.07L 74.5109375-18.07Q 73.7309375-16.31  73.5309375-14.31Q 73.3409375-12.3  73.1409375-10.06L 73.1409375-10.06Q 74.2209375-8.98  75.1909375-8.35Q 76.17093750000001-7.71  78.2209375-7.71L 78.2209375-7.71Q 79.3009375-7.71  79.9309375-7.96Q 80.5709375-8.2  81.6409375-8.3L 81.6409375-8.3Q 82.7109375-8.3  83.7909375-8.15Q 84.8609375-8.01  86.23093750000001-8.11L 86.23093750000001-8.11Q 89.0609375-8.3  91.0109375-8.84Q 92.97093749999999-9.38  95.8009375-9.18L 95.8009375-9.18Q 96.3909375-9.18  97.9009375-9.08Q 99.4109375-8.98  100.98093750000001-8.84Q 102.5409375-8.69  103.7609375-8.4Q 104.98093750000001-8.11  104.98093750000001-7.62L 104.98093750000001-7.62Q 104.98093750000001-7.03  104.25093749999999-6.4Q 103.5109375-5.76  102.5909375-5.22Q 101.6609375-4.69  100.73093750000001-4.35Q 99.8009375-4  99.5109375-3.91L 99.5109375-3.91Q 97.8509375-3.42  96.2909375-3.66Q 94.73093750000001-3.91  92.8709375-3.71L 92.8709375-3.71Q 91.50093749999999-3.52  90.4309375-3.13Q 89.3509375-2.73  88.2809375-2.29Q 87.2109375-1.86  86.0809375-1.42Q 84.9609375-0.98  83.50093749999999-0.88L 83.50093749999999-0.88Q 81.5409375-0.68  80.17093750000001-0.44Q 78.8109375-0.2  76.9509375 0.2L 76.9509375 0.2Q 76.17093750000001 0.39  75.4909375 0.63Q 74.8009375 0.88  74.0209375 1.07L 74.0209375 1.07Q 71.1909375 1.66  67.92093750000001 1.32Q 64.6509375 0.98  60.8409375 1.37L 60.8409375 1.37Q 58.4009375 1.66  56.4909375 2.1Q 54.5909375 2.54 52.6409375 2.34L 52.6409375 2.34Q 51.9509375 2.25 51.3209375 2.2Q 50.6809375 2.15 50.1909375 1.66L 50.1909375 1.66Q 50.3909375 0.88 51.0709375 0.29Q 51.7609375-0.29 52.4409375-0.78L 52.4409375-0.78Q 53.1209375-1.37  53.7609375-2Q 54.3909375-2.64  54.9809375-3.22L 54.9809375-3.22Q 55.5709375-4  55.9609375-5.13Q 56.3509375-6.25  56.6909375-7.42Q 57.0309375-8.59  57.4709375-9.62Q 57.9109375-10.64  58.5909375-11.43L 58.5909375-11.43Q 57.8109375-13.18  58.6409375-15.43Q 59.4709375-17.68  60.1609375-20.12L 60.1609375-20.12Q 60.3509375-20.7  60.3509375-21.29Q 60.3509375-21.88  60.5509375-22.36L 60.5509375-22.36Q 60.7409375-23.34  61.4209375-24.07Q 62.1109375-24.8  62.3009375-25.59L 62.3009375-25.59Q 62.4009375-26.07  62.3509375-26.56Q 62.3009375-27.05  62.4009375-27.54L 62.4009375-27.54Q 62.6009375-29  63.1309375-30.32Q 63.6709375-31.64  63.8709375-32.71L 63.8709375-32.71Q 64.0609375-33.5  63.9209375-34.33Q 63.7709375-35.16  63.8709375-35.94L 63.8709375-35.94Q 64.0609375-37.89  64.7009375-39.65Q 65.3309375-41.41  65.4309375-42.77L 65.4309375-42.77Q 65.5309375-43.85  65.1409375-45.12Q 64.75093749999999-46.39  64.3509375-47.07L 64.3509375-47.07Q 64.0609375-47.56  63.480937499999996-48.1Q 62.8909375-48.63  62.3009375-49.12Q 61.7209375-49.61  61.2809375-50.05Q 60.8409375-50.49  60.8409375-50.88L 60.8409375-50.88Q 60.940937500000004-51.95  61.7209375-52Q 62.5009375-52.05  63.1809375-52.64L 63.1809375-52.64Q 66.7009375-52.54  69.8709375-51.86Q 73.0509375-51.17  76.4609375-50.98L 76.4609375-50.98Q 77.7309375-50.78  79.1009375-51.03Q 80.4709375-51.27  81.7409375-51.37L 81.7409375-51.37Q 83.7909375-51.46  86.3809375-50.78Q 88.9609375-50.1  91.50093749999999-50.29L 91.50093749999999-50.29Q 94.92093750000001-50.49  97.95093750000001-50.49Q 100.98093750000001-50.49  104.3009375-50.68L 104.3009375-50.68Q 104.8809375-50.2  106.0509375-50.24Q 107.23093750000001-50.29  108.45093750000001-50.44Q 109.67093750000001-50.59  110.69093749999999-50.49Q 111.72093749999999-50.39  112.1109375-49.61L 112.1109375-49.61Q 112.69093749999999-48.24  111.9109375-47.27Q 111.1309375-46.29  109.7609375-46L 109.7609375-46Q 109.3709375-46  108.69093749999999-45.9Q 108.0109375-45.8  107.23093750000001-45.7Q 106.44093749999999-45.61  105.7109375-45.61Q 104.98093750000001-45.61  104.69093749999999-45.61ZM 152.54328125-28.91L 152.54328125-28.91Q 152.05328125-27.44  151.17328125-26.46Q 150.29328125-25.49  149.26328125-24.66Q 148.24328125-23.83  147.07328125-23.14Q 145.90328125-22.46  144.82328125-21.68L 144.82328125-21.68Q 146.19328124999998-19.43  147.02328125-18.16Q 147.85328125-16.89  148.58328125-15.87Q 149.31328125-14.84  150.24328125-13.67Q 151.17328125-12.5  152.83328125-10.35L 152.83328125-10.35Q 152.73328125-10.06  152.68328125-9.72Q 152.63328125-9.38  152.54328125-9.08L 152.54328125-9.08Q 154.49328125-8.59  155.90328125-7.08Q 157.32328125-5.57  158.98328125-4.2L 158.98328125-4.2Q 159.37328125-3.91  159.91328125-3.61Q 160.45328125-3.32  160.93328125-2.93Q 161.42328125-2.54  161.76328125-2.15Q 162.11328125-1.76  162.11328125-1.27L 162.11328125-1.27Q 162.01328125-0.39  161.52328125 0.29Q 161.03328125000002 0.98  160.35328125 1.27Q 159.66328125 1.56  158.98328125 1.37Q 158.30328125 1.17  157.71328125 0.1L 157.71328125 0.1Q 157.22328125 0.98  156.64328125 1.71Q 156.05328125 2.44  155.37328125 2.93L 155.37328125 2.93Q 154.88328125 2.83  154.15328125 2.69Q 153.41328125 2.54  153.02328125 2.34L 153.02328125 2.34Q 152.24328125 2.44  151.80328125 2.83Q 151.36328125 3.22  150.92328125 3.66Q 150.49328125 4.1  150.00328125 4.39Q 149.51328125 4.69  148.73328125 4.59L 148.73328125 4.59Q 148.04328125 4.49  147.60328125 3.71Q 147.16328125 2.93  146.68328125 2.34L 146.68328125 2.34Q 145.90328125 1.27  144.48328125 0Q 143.06328125-1.27  142.18328125-2.64L 142.18328125-2.64Q 141.70328125-3.42  141.35328125-4.1Q 141.01328125-4.79  140.13328125-5.27L 140.13328125-5.27Q 138.38328125-6.05  138.08328125-6.54Q 137.79328125-7.03  137.55328125-7.57Q 137.30328125-8.11  137.06328125-8.69Q 136.81328125-9.28  136.13328125-10.06L 136.13328125-10.06Q 135.64328125-10.74  135.49328125-10.94Q 135.35328125-11.13  135.35328125-11.18Q 135.35328125-11.23  135.30328125-11.43Q 135.25328125-11.62  134.86328125-12.4L 134.86328125-12.4Q 134.47328125-11.91  134.08328125-12.11Q 133.69328124999998-12.3  133.30328125-12.5L 133.30328125-12.5Q 132.03328125000002-11.62  130.66328125-10.21Q 129.29328125-8.79  127.78328125-7.47Q 126.27328125-6.15  124.65328124999999-5.03Q 123.04328125-3.91  121.29328125-3.61L 121.29328125-3.61Q 120.60328125-2.15  119.87328125-1.51Q 119.14328125-0.88  117.57328125 0.2L 117.57328125 0.2Q 116.50328125 0.98  115.52328125 1.71Q 114.55328125 2.44  113.18328125 2.64L 113.18328125 2.64Q 111.52328125 2.73 109.57328125 2.15Q 107.61328125 1.56 106.83328125 0.49L 106.83328125 0.49Q 106.64328125-0.68 107.13328125-1.51Q 107.61328125-2.34 108.40328125-3.03Q 109.18328125-3.71  110.06328125-4.3Q 110.93328125-4.88  111.52328125-5.47L 111.52328125-5.47Q 112.59328125-6.54  113.57328125-7.67Q 114.55328125-8.79  115.62328125-9.57L 115.62328125-9.57Q 116.50328125-10.25  117.62328125-11.08Q 118.75328125-11.91  119.87328125-12.89Q 120.99328125-13.87  121.97328125-14.84Q 122.95328125-15.82  123.53328125-16.7L 123.53328125-16.7Q 124.02328125-16.89  124.36328125-17.09Q 124.70328125-17.29  125.09328125-17.48L 125.09328125-17.48Q 125.58328125-18.85  126.51328125-19.73Q 127.44328125-20.61  128.32328125-21.48L 128.32328125-21.48Q 127.83328125-23.14  127.29328125-24.07Q 126.75328125-25  126.27328125-26.46L 126.27328125-26.46Q 126.07328125000001-26.66  125.68328125-26.56Q 125.29328125-26.46  125.09328125-26.66L 125.09328125-26.66Q 124.31328125-27.93  124.02328125-29Q 123.73328125-30.08  122.95328125-31.45L 122.95328125-31.45Q 122.65328124999999-31.93  122.26328125-32.37Q 121.87328125-32.81  121.68328125-33.3L 121.68328125-33.3Q 121.48328125-33.98  121.58328125-34.67Q 121.68328125-35.35  121.29328125-35.94L 121.29328125-35.94Q 121.09328125-36.43  120.65328124999999-36.47Q 120.21328125-36.52  119.63328125-36.82L 119.63328125-36.82Q 119.04328125-37.3  118.70328125-38.18Q 118.36328125-39.06  117.87328125-39.84L 117.87328125-39.84Q 117.48328125-40.23  116.99328125-40.67Q 116.50328125-41.11  116.06328125-41.6Q 115.62328125-42.09  115.38328125-42.72Q 115.13328125-43.36  115.23328125-44.34L 115.23328125-44.34Q 115.33328125-44.82  115.52328125-45.21Q 115.72328125-45.61  115.82328125-46.09L 115.82328125-46.09Q 116.01328125-46.97  117.14328125-48.14Q 118.26328125-49.32  119.67328125-50.39Q 121.09328125-51.46  122.60328125-52.2Q 124.12328125-52.93  125.19328125-52.93L 125.19328125-52.93Q 125.68328125-52.93  126.66328125-52.1Q 127.63328125-51.27  127.93328125-50.78L 127.93328125-50.78Q 128.22328125-50.39  128.41328125-49.8Q 128.61328125-49.22  129.00328125-48.63L 129.00328125-48.63Q 129.78328125000002-46.97  130.32328125-45.41Q 130.86328125-43.85  131.64328125-42.09L 131.64328125-42.09Q 133.00328125-39.16  134.32328125-36.82Q 135.64328125-34.47  137.30328125-31.74L 137.30328125-31.74Q 137.59328125-31.15  138.47328125-30.08Q 139.35328125-29  139.84328125-29L 139.84328125-29Q 140.43328125-29  141.74328125-29.93Q 143.06328125-30.86  143.55328125-31.35L 143.55328125-31.35Q 144.63328125-32.13  145.31328125-33.06Q 145.99328125-33.98  146.53328125000002-34.96Q 147.07328125-35.94  147.65328125-36.87Q 148.24328125-37.79  149.31328125-38.48L 149.31328125-38.48Q 150.39328125-38.28  150.92328125-38.62Q 151.46328125-38.96  152.05328125-39.26L 152.05328125-39.26Q 152.24328125-41.11  153.46328125-41.85Q 154.68328125-42.58  155.95328125-43.55L 155.95328125-43.55Q 156.54328125-43.95  156.78328125000002-44.14Q 157.03328125000002-44.34  157.17328125-44.48Q 157.32328125-44.63  157.57328125-44.78Q 157.81328125-44.92  158.40328125-45.31L 158.40328125-45.31Q 159.08328125-45.7  159.32328125-45.9Q 159.57328125-46.09  159.71328125-46.29Q 159.86328125-46.48  160.15328125-46.73Q 160.45328125-46.97  161.13328125-47.46L 161.13328125-47.46Q 162.30328125-48.34  163.28328125000002-48.97Q 164.25328125-49.61  165.23328125-50.39L 165.23328125-50.39Q 166.21328125-51.17  166.74328125-51.66Q 167.28328125000002-52.15  167.72328125-52.64Q 168.16328125-53.13  168.70328125-53.66Q 169.24328125-54.2  170.21328125-54.98L 170.21328125-54.98Q 171.29328125-54.88  171.92328125-54.44Q 172.56328125-54  173.14328125-53.52L 173.14328125-53.52Q 173.63328125-52.05  173.24328125-50.39Q 172.85328125-48.73  172.56328125-47.36L 172.56328125-47.36Q 172.36328125-46.68  172.36328125-46.09Q 172.36328125-45.51  172.36328125-44.97Q 172.36328125-44.43  172.16328125-43.95Q 171.97328125-43.46  171.48328125-42.87L 171.48328125-42.87Q 171.29328125-42.68  170.94328124999998-42.48Q 170.60328125-42.29  170.21328125-42.09L 170.21328125-42.09Q 169.04328125-41.02  168.45328125-40.48Q 167.87328125-39.94  167.43328125-39.55Q 166.99328125-39.16  166.35328125-38.77Q 165.72328125-38.38  164.35328125-37.6L 164.35328125-37.6Q 163.77328125-36.82  163.23328125-36.33Q 162.69328124999998-35.84  162.15328125-35.45Q 161.62328125-35.06  161.03328125000002-34.62Q 160.45328125-34.18  159.76328125-33.5L 159.76328125-33.5Q 158.20328125-32.03  156.64328125-30.62Q 155.07328125-29.2  152.54328125-28.91Z" data-textpath="vex" data-text-anchor="middle" data-font-size="100" data-letterspacing="0" data-side="left" data-offset="0.5" data-dx="0" data-dy="0" data-xmlspace="preserve" data-href="" data-font="Trade Winds" data-font-src="/Content/clientfonts/tradewinds.woff" data-font-scale="contain" transform="translate(0,0)" data-x="0" data-y="0" fill="url('#linearGradientSjyt2t33tv')"></path>
        </g>
      </svg>
    </g>
    <g transform="matrix(1.1791,0,0,1.1791,432.6904,147.4358)">
      <svg width="59.27734375" height="205" style="overflow: visible;">
        <defs>
          <linearGradient x1="0" y1="0.5" x2="1" y2="0.5" id="linearGradientSjyt2t33ty">
            <stop offset="0%" stop-color="#ffffff"></stop>
            <stop offset="100%" stop-color="#ffffff"></stop>
          </linearGradient>
        </defs>
        <g transform="matrix(1,0,0,1,0,108.75)">
          <path d="M 54.49-42.58L 54.49-42.58Q 55.47-40.63  55.96-38.96Q 56.45-37.3  56.74-34.47L 56.74-34.47Q 56.93-32.52  57.18-31.01Q 57.42-29.49  57.23-27.25L 57.23-27.25Q 57.13-25.68  56.74-23.97Q 56.35-22.27  55.76-20.8L 55.76-20.8Q 54.88-18.16  54.1-16.21Q 53.32-14.26  52.25-12.01L 52.25-12.01Q 51.56-10.74  50.88-9.96Q 50.2-9.18  49.41-8.3L 49.41-8.3Q 49.22-8.01  49.07-7.62Q 48.93-7.23  48.63-6.93L 48.63-6.93Q 47.36-5.47  45.17-3.91Q 42.97-2.34  41.11-1.66L 41.11-1.66Q 40.43-1.46  39.7-1.42Q 38.96-1.37  38.18-1.17L 38.18-1.17Q 37.21-0.78  36.52-0.05Q 35.84 0.68  34.77 0.98L 34.77 0.98Q 34.18 1.17  33.35 1.32Q 32.52 1.46  31.74 1.66L 31.74 1.66Q 29.79 2.15  26.9 2.64Q 24.02 3.13  21.58 2.54L 21.58 2.54Q 21.19 2.44  20.8 2.15Q 20.41 1.86  19.92 1.66L 19.92 1.66Q 19.43 1.46  18.95 1.37Q 18.46 1.27  18.07 1.07L 18.07 1.07Q 16.8 0.59  15.63-0.29Q 14.45-1.17  13.18-1.66L 13.18-1.66Q 11.82-2.44  10.45-3.08Q 9.08-3.71  8.59-5.37L 8.59-5.37Q 6.93-5.86  6.25-7.62Q 5.57-9.38  4.59-10.74L 4.59-10.74Q 4.3-11.23  3.76-11.57Q 3.22-11.91  3.03-12.4L 3.03-12.4Q 2.34-13.48  1.95-15.87Q 1.56-18.26  1.46-19.92L 1.46-19.92Q 1.37-21.68  1.71-23.29Q 2.05-24.9  2.49-26.46Q 2.93-28.03  3.47-29.49Q 4-30.96  4.39-32.32L 4.39-32.32Q 4.79-33.98  5.86-34.96Q 6.93-35.94  7.91-37.11L 7.91-37.11Q 8.3-37.5  8.5-37.99Q 8.69-38.48  9.08-38.96L 9.08-38.96Q 9.86-39.94  10.84-40.67Q 11.82-41.41  12.7-42.19L 12.7-42.19Q 13.67-42.97  14.75-43.7Q 15.82-44.43  16.5-45.21L 16.5-45.21Q 17.29-46.29  17.72-47.36Q 18.16-48.44  19.14-49.22L 19.14-49.22Q 20.21-50.1  21.53-50.49Q 22.85-50.88  24.61-51.37L 24.61-51.37Q 26.27-51.76  27.88-52.49Q 29.49-53.22  31.35-53.42L 31.35-53.42Q 33.11-53.61  35.16-53.66Q 37.21-53.71  39.21-53.52Q 41.21-53.32  43.02-52.83Q 44.82-52.34  46.19-51.46L 46.19-51.46Q 46.88-51.07  47.61-50.29Q 48.34-49.51  49.02-48.83L 49.02-48.83Q 50.59-47.27  51.71-45.65Q 52.83-44.04  54.49-42.58ZM 33.2-46.97L 33.2-46.97Q 32.81-46.97  32.08-46.68Q 31.35-46.39  30.62-46.04Q 29.88-45.7  29.3-45.31Q 28.71-44.92  28.42-44.73L 28.42-44.73Q 27.25-43.65  26.32-42.04Q 25.39-40.43  24.22-39.16L 24.22-39.16Q 23.73-38.67  23.19-38.43Q 22.66-38.18  22.36-37.79L 22.36-37.79Q 20.7-35.94  19.97-33.5Q 19.24-31.05  18.46-28.81L 18.46-28.81Q 17.58-26.46  16.8-23.54Q 16.02-20.61  16.31-17.97L 16.31-17.97Q 16.41-17.38  16.75-16.46Q 17.09-15.53  17.38-14.75L 17.38-14.75Q 17.77-13.87  18.12-13.04Q 18.46-12.21  18.85-11.52L 18.85-11.52Q 19.43-10.35  20.36-9.03Q 21.29-7.71  22.51-6.79Q 23.73-5.86  25.24-5.42Q 26.76-4.98  28.52-5.47L 28.52-5.47Q 29.59-5.86  31.15-6.69Q 32.71-7.52  33.98-8.3L 33.98-8.3Q 35.84-9.47  36.62-10.69Q 37.4-11.91  38.18-13.87L 38.18-13.87Q 38.38-14.36  38.72-14.79Q 39.06-15.23  39.36-15.72L 39.36-15.72Q 39.94-16.8  40.33-18.07Q 40.72-19.34  41.31-20.51L 41.31-20.51Q 42.48-23.14  42.77-25.59Q 43.07-28.03  43.26-31.45L 43.26-31.45Q 43.36-33.3  43.02-34.18Q 42.68-35.06  42.48-36.62L 42.48-36.62Q 42.38-37.7  42.38-38.62Q 42.38-39.55  41.99-40.23L 41.99-40.23Q 41.5-41.11  40.19-41.41Q 38.87-41.7  38.09-42.48L 38.09-42.48Q 37.3-43.75  36.43-44.92Q 35.55-46.09  34.28-46.88L 34.28-46.88Q 33.79-46.78  33.59-46.88Q 33.4-46.97  33.2-46.97Z" data-textpath="o" data-text-anchor="middle" data-font-size="100" data-letterspacing="0" data-side="left" data-offset="0.5" data-dx="0" data-dy="0" data-xmlspace="preserve" data-href="" data-font="Trade Winds" data-font-src="/Content/clientfonts/tradewinds.woff" data-font-scale="contain" transform="translate(0,0)" data-x="0" data-y="0" fill="url('#linearGradientSjyt2t33ty')"></path>
        </g>
      </svg>
    </g>
    <g transform="matrix(1.2139,0,0,1.2139,432.2476,197.3657)">
      <svg width="46.19140625" height="205" style="overflow: visible;">
        <defs>
          <linearGradient x1="0" y1="0.5" x2="1" y2="0.5" id="linearGradientSjyt2t33t11">
            <stop offset="0%" stop-color="#ffffff"></stop>
            <stop offset="100%" stop-color="#ffffff"></stop>
          </linearGradient>
        </defs>
        <g transform="matrix(1,0,0,1,0,108.75)">
          <path d="M 42.38-38.09L 42.38-38.09Q 43.75-36.33  43.07-34.52Q 42.38-32.71  40.82-31.84L 40.82-31.84Q 40.43-31.64  40.04-31.59Q 39.65-31.54  39.16-31.35L 39.16-31.35Q 38.18-30.86  37.55-30.13Q 36.91-29.39  36.13-29.2L 36.13-29.2Q 35.35-29.1  34.33-29.35Q 33.3-29.59  32.23-29.79L 32.23-29.79Q 29.98-29.98  27.39-29.88Q 24.8-29.79  22.56-29.79L 22.56-29.79Q 20.61-29.79  19.04-30.03Q 17.48-30.27  16.41-31.05L 16.41-31.05Q 14.06-30.37  11.43-29.88Q 8.79-29.39  6.15-29.69L 6.15-29.69Q 4.49-29.88  2.98-30.47Q 1.46-31.05  0-31.05L 0-31.05Q-0.2-32.23  0.15-33.15Q 0.49-34.08  1.07-34.91Q 1.66-35.74  2.25-36.43Q 2.83-37.11  3.32-37.89L 3.32-37.89Q 4.3-38.28  5.32-38.33Q 6.35-38.38  7.37-38.23Q 8.4-38.09  9.47-37.89Q 10.55-37.7  11.72-37.79L 11.72-37.79Q 12.3-37.79  12.84-38.04Q 13.38-38.28  13.96-38.28L 13.96-38.28Q 14.94-38.38  15.92-38.33Q 16.89-38.28  17.97-38.28L 17.97-38.28Q 18.95-38.28  20.07-38.38Q 21.19-38.48  21.68-38.28L 21.68-38.28Q 22.36-38.18  22.9-37.7Q 23.44-37.21  24.12-37.21L 24.12-37.21Q 24.61-37.21  25.05-37.55Q 25.49-37.89  26.17-38.09L 26.17-38.09Q 26.95-38.28  28.08-38.33Q 29.2-38.38  30.27-38.38Q 31.35-38.38  32.32-38.38Q 33.3-38.38  33.89-38.48L 33.89-38.48Q 36.04-38.67  38.09-38.48Q 40.14-38.28  42.38-38.09Z" data-textpath="-" data-text-anchor="middle" data-font-size="100" data-letterspacing="0" data-side="left" data-offset="0.5" data-dx="0" data-dy="0" data-xmlspace="preserve" data-href="" data-font="Trade Winds" data-font-src="/Content/clientfonts/tradewinds.woff" data-font-scale="contain" transform="translate(0,0)" data-x="0" data-y="0" fill="url('#linearGradientSjyt2t33t11')"></path>
        </g>
      </svg>
    </g>
    <g transform="matrix(1.4537,0,0,1.4537,500.7009,132.6096)">
      <svg width="80.2734375" height="205" style="overflow: visible;">
        <defs>
          <linearGradient x1="0" y1="0.5" x2="1" y2="0.5" id="linearGradientSjyt2t33t14">
            <stop offset="0%" stop-color="#ffffff"></stop>
            <stop offset="100%" stop-color="#ffffff"></stop>
          </linearGradient>
        </defs>
        <g transform="matrix(1,0,0,1,0,108.75)">
          <path d="M 59.28 2.34L 59.28 2.34Q 58.79 2.25  58.79 1.66Q 58.79 1.07  58.4 0.88L 58.4 0.88Q 57.13 0.88  56.4 0.93Q 55.66 0.98  54.3 0.49L 54.3 0.49Q 53.71-0.88  53.71-2.34Q 53.71-3.81  54.2-5.18L 54.2-5.18Q 54.39-5.76  54.83-6.2Q 55.27-6.64  55.47-7.13L 55.47-7.13Q 55.57-7.62  55.42-8.2Q 55.27-8.79  55.27-9.28L 55.27-9.28Q 55.37-12.21  56.54-15.09Q 57.71-17.97  58.2-20.8L 58.2-20.8Q 58.3-21.58  58.11-22.71Q 57.91-23.83  58.11-24.61L 58.11-24.61Q 58.3-25.49  58.84-26.27Q 59.38-27.05  59.57-28.03L 59.57-28.03Q 59.96-29.98  60.01-31.88Q 60.06-33.79  60.84-35.64L 60.84-35.64Q 57.52-32.23  54.79-28.66Q 52.05-25.1  49.61-20.41L 49.61-20.41Q 48.54-18.16  46.97-16.36Q 45.41-14.55  44.34-12.11L 44.34-12.11Q 44.14-11.62  44.14-11.18Q 44.14-10.74  43.95-10.25L 43.95-10.25Q 43.46-9.18  42.63-8.01Q 41.8-6.84  41.31-5.37L 41.31-5.37Q 41.02-4.3  40.67-3.03Q 40.33-1.76  39.79-0.63Q 39.26 0.49  38.48 1.27Q 37.7 2.05  36.43 2.15L 36.43 2.15Q 35.25 2.15  34.52 1.71Q 33.79 1.27  32.81 1.56L 32.81 1.56Q 31.35 0.49  29.83-0.44Q 28.32-1.37  27.44-3.22L 27.44-3.22Q 26.46-5.08  26.03-7.96Q 25.59-10.84  25-13.18L 25-13.18Q 24.8-13.96  24.46-14.7Q 24.12-15.43  24.02-16.02L 24.02-16.02Q 23.93-17.19  24.02-18.31Q 24.12-19.43  23.93-20.51L 23.93-20.51Q 23.63-21.68  22.71-22.56Q 21.78-23.44  21.29-24.22L 21.29-24.22Q 21-25.68  20.9-27.39Q 20.8-29.1  20.7-30.76L 20.7-30.76Q 19.73-30.37  19.53-29.2Q 19.34-28.03  18.85-26.66L 18.85-26.66Q 18.55-25.98  18.21-25.39Q 17.87-24.8  17.77-24.32L 17.77-24.32Q 17.68-23.73  17.87-23.14Q 18.07-22.56  17.97-21.78L 17.97-21.78Q 17.87-21.19  17.63-20.31Q 17.38-19.43  17.19-18.65L 17.19-18.65Q 16.7-17.29  16.02-15.92Q 15.33-14.55  14.94-12.89L 14.94-12.89Q 14.36-11.23  14.21-9.33Q 14.06-7.42  13.57-6.05L 13.57-6.05Q 13.38-5.47  12.79-4.98Q 12.21-4.49  11.62-3.86Q 11.04-3.22  10.6-2.44Q 10.16-1.66  10.16-0.68L 10.16-0.68Q 9.08 0.1  7.86 0.63Q 6.64 1.17  4.98 1.76L 4.98 1.76Q 4.1 2.05  3.17 2.15Q 2.25 2.25  1.46 1.9Q 0.68 1.56  0.29 0.73Q-0.1-0.1  0.1-1.56L 0.1-1.56Q 0.29-2.93  1.03-4.54Q 1.76-6.15  2.25-8.11L 2.25-8.11Q 2.93-10.64  3.47-12.7Q 4-14.75  5.18-16.21L 5.18-16.21L 5.18-18.07Q 5.57-18.75  5.86-19.38Q 6.15-20.02  6.74-20.51L 6.74-20.51Q 6.45-21.88  6.59-23.14Q 6.74-24.41  7.18-25.63Q 7.62-26.86  8.11-27.98Q 8.59-29.1  8.98-30.18L 8.98-30.18Q 9.38-31.35  9.47-32.28Q 9.57-33.2  10.06-33.98L 10.06-33.98Q 10.25-34.38  10.74-34.62Q 11.23-34.86  11.52-35.35L 11.52-35.35Q 12.01-36.23  12.65-37.84Q 13.28-39.45  13.48-40.43L 13.48-40.43Q 13.77-41.31  13.72-42.24Q 13.67-43.16  13.57-44.09Q 13.48-45.02  13.53-45.9Q 13.57-46.78  14.06-47.46L 14.06-47.46Q 14.36-47.95  15.09-48.34Q 15.82-48.73  16.31-49.02L 16.31-49.02Q 17.38-49.71  18.36-50.15Q 19.34-50.59  20.7-51.07L 20.7-51.07Q 21.19-51.27  21.78-51.46Q 22.36-51.66  22.75-51.66L 22.75-51.66Q 23.83-51.66  24.71-50.98Q 25.59-50.29  26.76-49.8L 26.76-49.8Q 27.25-49.61  27.73-49.61Q 28.22-49.61  28.52-49.51L 28.52-49.51Q 30.27-48.73  31.64-47.61Q 33.01-46.48  33.98-45.51L 33.98-45.51Q 35.06-41.8  35.01-37.79Q 34.96-33.79  35.35-30.08L 35.35-30.08Q 35.55-29.49  35.74-28.91Q 35.94-28.32  36.04-27.73L 36.04-27.73Q 36.13-26.66  35.99-25.68Q 35.84-24.71  36.04-23.73L 36.04-23.73Q 36.33-21.78  37.06-20.21Q 37.79-18.65  38.18-16.8L 38.18-16.8Q 39.16-17.29  39.75-18.31Q 40.33-19.34  40.82-20.31L 40.82-20.31Q 41.8-22.36  42.77-24.17Q 43.75-25.98  45.12-27.64L 45.12-27.64Q 46.19-29.1  46.78-30.86Q 47.36-32.62  48.93-33.59L 48.93-33.59Q 49.51-34.08  50.2-34.18Q 50.88-34.28  51.37-34.96L 51.37-34.96Q 51.86-38.67  53.27-41.31Q 54.69-43.95  56.54-46.48L 56.54-46.48Q 57.32-47.46  58.35-49.07Q 59.38-50.68  60.35-51.07L 60.35-51.07Q 61.23-51.46  62.55-51.22Q 63.87-50.98  64.94-50.98L 64.94-50.98Q 66.41-50.98  67.43-51.37Q 68.46-51.76  69.38-52.15Q 70.31-52.54  71.34-52.83Q 72.36-53.13  73.83-52.93L 73.83-52.93Q 74.02-53.13  74.32-53.17Q 74.61-53.22  74.9-53.42L 74.9-53.42Q 75.78-53.03  76.66-52.49Q 77.54-51.95  78.27-51.22Q 79-50.49  79.44-49.56Q 79.88-48.63  79.79-47.56L 79.79-47.56Q 79.79-47.07  79.39-46.48Q 79-45.9  78.71-45.12L 78.71-45.12Q 78.52-44.53  78.22-43.85Q 77.93-43.16  77.73-42.58L 77.73-42.58Q 77.44-41.5  77.83-40.38Q 78.22-39.26  77.73-38.57L 77.73-38.57Q 77.34-38.09  76.71-37.79Q 76.07-37.5  75.78-36.91L 75.78-36.91Q 75.29-36.23  75.15-35.16Q 75-34.08  74.71-33.2L 74.71-33.2Q 74.12-31.25  73.58-29.39Q 73.05-27.54  72.66-25.49L 72.66-25.49Q 72.36-23.83  72.12-22.27Q 71.88-20.7  70.8-19.92L 70.8-19.92Q 70.51-18.36  70.56-16.85Q 70.61-15.33  70.41-13.87L 70.41-13.87Q 70.02-11.04  68.85-8.4Q 67.68-5.76  66.99-3.22L 66.99-3.22Q 66.6-1.76  66.36-0.63Q 66.11 0.49  65.14 1.37L 65.14 1.37Q 63.57 1.56  62.11 1.95Q 60.64 2.34  59.28 2.34Z" data-textpath="m" data-text-anchor="middle" data-font-size="100" data-letterspacing="0" data-side="left" data-offset="0.5" data-dx="0" data-dy="0" data-xmlspace="preserve" data-href="" data-font="Trade Winds" data-font-src="/Content/clientfonts/tradewinds.woff" data-font-scale="contain" transform="translate(0,0)" data-x="0" data-y="0" fill="url('#linearGradientSjyt2t33t14')"></path>
        </g>
      </svg>
    </g>
    <g transform="matrix(0.3439,0,0,0.3439,251.8176,307.751)">
      <svg width="865.5999999999998" height="181" style="overflow: visible;">
        <defs>
          <linearGradient x1="0" y1="0.5" x2="1" y2="0.5" id="linearGradientSjyt2t33ts">
            <stop offset="0%" stop-color="#000000"></stop>
            <stop offset="100%" stop-color="#000000"></stop>
          </linearGradient>
        </defs>
        <g transform="matrix(1,0,0,1,0,90.75)">
          <path d="M 87.2 0L 72 0L 71.9-42L 51.3-7.4L 44-7.4L 23.5-41.1L 23.5 0L 8.3 0L 8.3-70L 21.7-70L 47.9-26.5L 73.7-70L 87-70L 87.2 0ZM 184.4 0L 178.20000000000002-15L 145.70000000000002-15L 139.5 0L 122.9 0L 154.10000000000002-70L 170.10000000000002-70L 201.4 0L 184.4 0ZM 150.9-27.3L 173.10000000000002-27.3L 162-54.1L 150.9-27.3ZM 299.00000000000006 0L 281.6 0L 268.1-19.5L 267.30000000000007-19.5L 253.20000000000005-19.5L 253.20000000000005 0L 237.00000000000006 0L 237.00000000000006-70L 267.30000000000007-70Q 276.6-70  283.45000000000005-66.9Q 290.30000000000007-63.8  294.00000000000006-58.1Q 297.70000000000005-52.4  297.70000000000005-44.6L 297.70000000000005-44.6Q 297.70000000000005-36.8  293.95000000000005-31.15Q 290.20000000000005-25.5  283.30000000000007-22.5L 283.30000000000007-22.5L 299.00000000000006 0ZM 281.30000000000007-44.6Q 281.30000000000007-50.5  277.50000000000006-53.65Q 273.70000000000005-56.8  266.40000000000003-56.8L 266.40000000000003-56.8L 253.20000000000005-56.8L 253.20000000000005-32.4L 266.40000000000003-32.4Q 273.70000000000005-32.4  277.50000000000006-35.6Q 281.30000000000007-38.8  281.30000000000007-44.6L 281.30000000000007-44.6ZM 386.7 0L 364.3-27.5L 354.9-17.7L 354.9 0L 338.8 0L 338.8-70L 354.9-70L 354.9-37.3L 385.9-70L 403.9-70L 374.9-38.8L 405.6 0L 386.7 0ZM 457.20000000000005-13L 495.30000000000007-13L 495.30000000000007 0L 441.1000000000001 0L 441.1000000000001-70L 494.00000000000006-70L 494.00000000000006-57L 457.20000000000005-57L 457.20000000000005-41.8L 489.70000000000005-41.8L 489.70000000000005-29.2L 457.20000000000005-29.2L 457.20000000000005-13ZM 551.0000000000001 0L 551.0000000000001-56.8L 528.6000000000001-56.8L 528.6000000000001-70L 589.6000000000001-70L 589.6000000000001-56.8L 567.2000000000002-56.8L 567.2000000000002 0L 551.0000000000001 0ZM 626.6 0L 626.6-70L 642.8000000000001-70L 642.8000000000001 0L 626.6 0ZM 735.9-70L 751.9-70L 751.9 0L 738.6 0L 703.6999999999999-42.5L 703.6999999999999 0L 687.6999999999999 0L 687.6999999999999-70L 701.1-70L 735.9-27.5L 735.9-70ZM 844.1-15.6L 844.1-36.1L 858.9-36.1L 858.9-7.7Q 853.2-3.4  845.7-1.1Q 838.2 1.2  830.6 1.2L 830.6 1.2Q 819.7 1.2  811-3.45Q 802.3-8.1  797.35-16.35Q 792.4-24.6  792.4-35L 792.4-35Q 792.4-45.4  797.35-53.65Q 802.3-61.9  811.1-66.55Q 819.9-71.2  830.9-71.2L 830.9-71.2Q 840.1-71.2  847.6-68.1Q 855.1-65  860.2-59.1L 860.2-59.1L 849.8-49.5Q 842.3-57.4  831.7-57.4L 831.7-57.4Q 825-57.4  819.8-54.6Q 814.6-51.8  811.7-46.7Q 808.8-41.6  808.8-35L 808.8-35Q 808.8-28.5  811.7-23.4Q 814.6-18.3  819.75-15.45Q 824.9-12.6  831.5-12.6L 831.5-12.6Q 838.5-12.6  844.1-15.6L 844.1-15.6Z" data-textpath="M A R K E T I N G" data-text-anchor="middle" data-font-size="100" data-letterspacing="0" data-side="left" data-offset="0.5" data-dx="0" data-dy="0" data-xmlspace="preserve" data-href="" data-font="Montserrat" data-font-src="/Content/clientfonts/montserrat-bold.woff" data-font-scale="contain" transform="translate(0,0)" data-x="0" data-y="0" fill="url('#linearGradientSjyt2t33ts')"></path>
        </g>
      </svg>
    </g>
  </g>
</svg>